HIERARCHY
ROOT Hips
{
	OFFSET 62.890800 8.863803 43.568401
	CHANNELS 6 Xposition Yposition Zposition Zrotation Xrotation Yrotation
	JOINT Chest
	{
		OFFSET -0.160400 1.630001 7.806301
		CHANNELS 6 Xposition Yposition Zposition Zrotation Xrotation Yrotation
		JOINT Chest2
		{
			OFFSET 0.000000 0.000000 3.197998
			CHANNELS 6 Xposition Yposition Zposition Zrotation Xrotation Yrotation
			JOINT Neck
			{
				OFFSET 0.000000 0.000001 7.440701
				CHANNELS 6 Xposition Yposition Zposition Zrotation Xrotation Yrotation
				JOINT Head
				{
					OFFSET 0.000000 0.000000 2.173901
					CHANNELS 6 Xposition Yposition Zposition Zrotation Xrotation Yrotation
					End Site
					{
						OFFSET 0.000000 0.000001 10.420303
					}
				}
			}
			JOINT LeftCollar
			{
				OFFSET 2.426399 -1.880099 4.759399
				CHANNELS 6 Xposition Yposition Zposition Zrotation Xrotation Yrotation
				JOINT LeftShoulder
				{
					OFFSET 4.420197 0.000000 0.000000
					CHANNELS 6 Xposition Yposition Zposition Zrotation Xrotation Yrotation
					JOINT LeftElbow
					{
						OFFSET 0.000000 -0.000001 -10.347099
						CHANNELS 6 Xposition Yposition Zposition Zrotation Xrotation Yrotation
						JOINT LeftWrist
						{
							OFFSET 0.000000 -0.000001 -12.496300
							CHANNELS 6 Xposition Yposition Zposition Zrotation Xrotation Yrotation
							End Site
							{
								OFFSET 0.000000 0.000000 -2.173901
							}
						}
					}
				}
			}
			JOINT RightCollar
			{
				OFFSET -2.781502 -1.903799 5.072601
				CHANNELS 6 Xposition Yposition Zposition Zrotation Xrotation Yrotation
				JOINT RightShoulder
				{
					OFFSET -4.012100 0.000000 0.000000
					CHANNELS 6 Xposition Yposition Zposition Zrotation Xrotation Yrotation
					JOINT RightElbow
					{
						OFFSET 0.000000 -0.000001 -10.346600
						CHANNELS 6 Xposition Yposition Zposition Zrotation Xrotation Yrotation
						JOINT RightWrist
						{
							OFFSET 0.000000 -0.000001 -12.562599
							CHANNELS 6 Xposition Yposition Zposition Zrotation Xrotation Yrotation
							End Site
							{
								OFFSET 0.000000 0.000000 -2.173901
							}
						}
					}
				}
			}
		}
	}
	JOINT LeftHip
	{
		OFFSET 2.047997 -0.047200 -2.693199
		CHANNELS 6 Xposition Yposition Zposition Zrotation Xrotation Yrotation
		JOINT LeftKnee
		{
			OFFSET 0.000000 -0.000001 -18.824400
			CHANNELS 6 Xposition Yposition Zposition Zrotation Xrotation Yrotation
			JOINT LeftAnkle
			{
				OFFSET 0.000000 -0.000002 -19.078199
				CHANNELS 6 Xposition Yposition Zposition Zrotation Xrotation Yrotation
				End Site
				{
					OFFSET 0.000000 -9.342100 0.000001
				}
			}
		}
	}
	JOINT RightHip
	{
		OFFSET -2.129898 -0.022300 -2.538300
		CHANNELS 6 Xposition Yposition Zposition Zrotation Xrotation Yrotation
		JOINT RightKnee
		{
			OFFSET 0.000000 -0.000001 -18.644600
			CHANNELS 6 Xposition Yposition Zposition Zrotation Xrotation Yrotation
			JOINT RightAnkle
			{
				OFFSET 0.000000 -0.000002 -18.801399
				CHANNELS 6 Xposition Yposition Zposition Zrotation Xrotation Yrotation
				End Site
				{
					OFFSET 0.000000 -8.914600 0.000001
				}
			}
		}
	}
}
MOTION
Frames: 6
Frame Time: 0.041667
-18.944016 -43.627407 26.806248 -367.687934 23.587678 -33.970564 -0.160399 1.630007 7.806304 -14.870449 13.199359 -21.676406 0.000014 -0.000001 3.198003 5.069176 -6.996976 0.169125 -0.000007 0.000010 7.440706 -50.379731 4.952232 -8.297746 -0.000007 -0.000003 2.173904 -6.977520 -2.584943 -7.703355 2.426400 -1.880098 4.759397 -184.227072 177.745797 -186.513437 4.420190 0.000001 -0.000003 -105.231386 -15.989128 -92.059550 0.000005 0.000000 -10.347087 356.905169 -36.840551 2.641509 0.000001 0.000000 -12.496298 -39.346855 162.648579 237.696075 -2.781508 -1.903803 5.072604 -155.266223 -197.393888 171.206396 -4.012101 0.000008 0.000004 76.548416 -9.834620 430.177554 -0.000004 0.000002 -10.346601 -0.963933 -20.877716 -10.225375 -0.000006 -0.000003 -12.562596 1221.155096 -167.597515 158.076696 2.047991 -0.047196 -2.693203 155.779908 3.817877 60.973925 -0.000007 0.000004 -18.824404 -2.286672 171.346579 -107.030137 -0.000001 -0.000004 -19.078197 36.850926 -1.152058 54.906794 -2.129897 -0.022295 -2.538305 -510.836241 -8.629645 -130.607355 -0.000003 0.000000 -18.644600 377.267302 168.783386 83.332898 0.000001 0.000001 -18.801397 -22.981877 -8.975875 -46.403506
-19.104904 -43.637611 26.854954 -367.654494 23.719633 -34.298676 -0.160400 1.630004 7.806303 -14.977587 13.214533 -21.718354 0.000004 0.000002 3.198000 5.102267 -7.033493 0.170159 -0.000003 0.000010 7.440693 -50.303408 4.825317 -8.214044 -0.000009 0.000006 2.173906 -6.990560 -2.679146 -7.701563 2.426402 -1.880097 4.759395 -184.044980 177.857634 -186.713958 4.420187 0.000001 -0.000010 -105.648164 -15.935386 -92.409891 0.000002 0.000001 -10.347098 356.745234 -36.445763 2.577133 -0.000003 0.000002 -12.496298 -39.094982 162.841655 237.485213 -2.781501 -1.903795 5.072595 -155.159618 -197.442874 171.184539 -4.012101 0.000002 0.000001 76.685020 -9.858794 430.200612 -0.000005 0.000005 -10.346596 -0.806826 -20.674219 -10.009614 -0.000004 -0.000002 -12.562602 1221.003412 -167.717044 158.155284 2.047989 -0.047196 -2.693202 155.674874 3.819927 60.489453 0.000009 -0.000004 -18.824406 -1.746034 170.579221 -107.485710 -0.000002 0.000002 -19.078205 36.077599 -0.674355 53.682176 -2.129898 -0.022298 -2.538305 -510.770289 -8.700503 -130.758508 -0.000003 -0.000005 -18.644596 377.206431 168.710686 83.197503 0.000000 -0.000005 -18.801405 -22.976823 -9.053687 -46.333473
-19.262215 -43.649204 26.905851 -367.632419 23.850042 -34.619032 -0.160399 1.630004 7.806300 -15.076724 13.225871 -21.776224 0.000009 0.000003 3.197999 5.145822 -7.073356 0.171827 -0.000008 0.000006 7.440697 -50.264872 4.693512 -8.083325 -0.000011 0.000001 2.173909 -6.987345 -2.769349 -7.718292 2.426404 -1.880099 4.759397 -183.869635 177.965838 -186.870205 4.420198 0.000002 -0.000003 -106.034555 -15.858492 -92.741101 0.000005 0.000002 -10.347096 356.601308 -36.072083 2.515891 0.000003 -0.000001 -12.496292 -38.845352 163.014472 237.297192 -2.781507 -1.903800 5.072599 -155.057889 -197.508908 171.163188 -4.012101 0.000009 -0.000007 77.004270 -9.271238 430.224436 -0.000010 0.000009 -10.346602 -1.252717 -20.463059 -9.781125 -0.000002 -0.000006 -12.562597 1220.824078 -167.758284 158.208464 2.048000 -0.047197 -2.693193 155.615738 3.863708 59.998560 0.000001 -0.000004 -18.824400 -1.255202 169.861696 -107.922958 0.000001 -0.000000 -19.078201 35.357936 -0.239415 52.549198 -2.129895 -0.022298 -2.538301 -510.701003 -8.778846 -130.882243 0.000003 0.000001 -18.644592 377.154194 168.619202 83.037820 -0.000001 -0.000006 -18.801394 -22.943136 -9.132053 -46.154822
-19.415512 -43.662407 26.958849 -367.625151 23.977094 -34.940854 -0.160403 1.629997 7.806299 -15.169285 13.232476 -21.834308 0.000015 -0.000005 3.197998 5.200255 -7.115353 0.174210 -0.000002 0.000015 7.440690 -50.235816 4.559975 -7.922447 -0.000011 0.000003 2.173909 -6.984472 -2.856271 -7.726100 2.426404 -1.880098 4.759393 -183.700055 178.080995 -187.018188 4.420197 0.000001 -0.000003 -106.394260 -15.792757 -93.050160 0.000002 0.000005 -10.347092 356.488500 -35.713779 2.470349 0.000012 -0.000003 -12.496291 -38.626058 163.178519 237.132447 -2.781500 -1.903799 5.072597 -154.982511 -197.576035 171.175291 -4.012100 0.000004 0.000015 77.136810 -9.339263 430.197279 -0.000005 0.000001 -10.346600 -1.112077 -20.150912 -9.611040 -0.000003 -0.000000 -12.562598 1220.730750 -167.821204 158.277654 2.047993 -0.047202 -2.693199 155.601285 3.947181 59.490408 -0.000003 0.000002 -18.824406 -0.830476 169.215491 -108.352058 -0.000001 0.000004 -19.078203 34.729125 0.109952 51.660262 -2.129897 -0.022299 -2.538301 -510.636800 -8.873889 -130.995119 -0.000001 -0.000002 -18.644592 377.070483 168.509947 82.939062 0.000000 -0.000001 -18.801399 -22.891145 -9.153711 -45.958584
-19.564415 -43.677509 27.012854 -367.624987 24.084196 -35.275622 -0.160398 1.630000 7.806309 -15.265830 13.239964 -21.875704 0.000009 0.000002 3.197997 5.266853 -7.161403 0.177474 0.000002 0.000011 7.440709 -50.235959 4.426501 -7.737044 -0.000010 -0.000004 2.173904 -6.974117 -2.939963 -7.748383 2.426402 -1.880097 4.759399 -183.549682 178.184636 -187.136146 4.420197 0.000003 0.000001 -106.713510 -15.684689 -93.353161 0.000006 0.000005 -10.347090 356.214364 -35.385106 2.344512 -0.000001 0.000001 -12.496297 -38.339908 163.163343 236.968632 -2.781501 -1.903798 5.072605 -154.920233 -197.649692 171.190932 -4.012102 0.000001 -0.000002 77.239119 -9.430037 430.151271 -0.000003 -0.000000 -10.346601 -0.887787 -19.827342 -9.450939 -0.000002 -0.000007 -12.562599 1220.587262 -167.915802 158.394204 2.047991 -0.047200 -2.693196 155.584947 4.025045 58.958780 0.000011 -0.000002 -18.824402 -0.357632 168.481342 -108.791294 -0.000002 -0.000003 -19.078196 34.002861 0.486913 50.699552 -2.129889 -0.022301 -2.538301 -510.592595 -8.995876 -131.116614 -0.000002 -0.000002 -18.644590 376.973932 168.386402 82.840926 -0.000003 -0.000003 -18.801401 -22.817012 -9.145918 -45.708142
-19.709717 -43.694202 27.067347 -367.633156 24.180198 -35.599547 -0.160401 1.630000 7.806300 -15.357305 13.254628 -21.941822 0.000001 0.000009 3.198006 5.345946 -7.205911 0.181370 0.000000 0.000008 7.440693 -50.257529 4.267999 -7.519259 -0.000001 0.000005 2.173905 -6.946224 -3.012860 -7.788185 2.426401 -1.880096 4.759391 -183.395497 178.308850 -187.210035 4.420197 -0.000003 -0.000010 -107.017036 -15.553212 -93.633533 -0.000006 0.000001 -10.347091 355.973286 -35.076949 2.238501 0.000006 -0.000007 -12.496300 -38.072192 163.131378 236.812795 -2.781500 -1.903800 5.072604 -154.888937 -197.740083 171.265860 -4.012100 0.000005 0.000005 77.347972 -9.532237 430.082313 -0.000010 0.000008 -10.346597 -0.673720 -19.494615 -9.304211 -0.000000 -0.000004 -12.562606 1220.435905 -168.005114 158.532871 2.047986 -0.047198 -2.693205 155.588376 4.113834 58.422966 -0.000001 0.000002 -18.824402 0.091438 167.768120 -109.237872 0.000005 0.000003 -19.078203 33.294116 0.839981 49.805196 -2.129897 -0.022299 -2.538305 -510.555657 -9.123910 -131.232331 0.000000 -0.000003 -18.644602 376.871042 168.288034 82.744019 -0.000003 -0.000001 -18.801405 -22.761882 -9.129303 -45.457614
